<?xml version="1.0" encoding="utf-8"?>
<!-- Generator: Adobe Illustrator 21.0.0, SVG Export Plug-In . SVG Version: 6.00 Build 0)  -->
<svg version="1.1" xmlns="http://www.w3.org/2000/svg" xmlns:xlink="http://www.w3.org/1999/xlink" x="0px" y="0px"
	 viewBox="0 0 250 53" style="enable-background:new 0 0 250 53;" xml:space="preserve">
<style type="text/css">
	.st0{display:none;}
	.st1{display:inline;}
	.st2{fill:#1C4577;}
	.st3{display:inline;fill:none;}
	.st4{clip-path:url(#SVGID_2_);fill:#1C4577;}
	.st5{display:inline;fill:#1C4577;}
</style>
<g id="Layer_3" class="st0">
	<g class="st1">
		<path class="st2" d="M36.4,25.6v3.5c0,2.1,0.1,2.8,2.7,2.8c1.5,0,3-0.1,4.3-0.9c1.6-1,2.7-2.7,2.7-5.2c0-3.2-2.1-4.8-3.2-5.3
			c-1-0.5-2-0.6-5.2-0.6c-1.2,0-1.2,0.3-1.2,0.8L36.4,25.6z M36.4,16.5c0,0.7,0,0.7,1.2,0.7c0.7,0,2.4-0.1,3.1-0.3
			c1.9-0.6,3.5-2.5,3.5-4.9c0-1.3-0.4-4.7-4.8-4.7c-2.7,0-2.7,0-2.9,0.3c-0.1,0.3-0.1,3.1-0.1,3.6V16.5z M31.1,16c0-1.3,0-7.2-0.2-8
			c-0.1-0.5-0.6-0.9-1.7-1.1C28.2,6.8,28,6.6,28,6V5.2c0-0.6,0.1-0.7,0.6-0.7c0.4,0,1.2,0,2.2,0.1c0.9,0,2,0.1,2.8,0.1
			c1,0,2.4-0.1,3.9-0.2c1.5,0,3-0.1,4.2-0.1c1.7,0,4.3,0,6.3,2.1c1.2,1.2,1.8,2.9,1.8,4.7c0,5.1-4.4,6.1-5.5,6.4
			c-1,0.2-1.2,0.3-1.2,0.5c0,0.2,0.1,0.2,1.2,0.3c2.7,0.2,4.4,1.1,5.6,2.5c1.5,1.8,1.8,3.8,1.8,5c0,4.2-3.6,8.7-9.7,8.7
			c-1.6,0-2.9-0.1-4.1-0.2c-1.2-0.1-2.5-0.2-4.3-0.2c-0.7,0-1.8,0-2.8,0.1c-1,0-1.9,0.1-2.3,0.1c-0.5,0-0.6-0.3-0.6-0.7v-0.9
			c0-0.7,0.2-0.8,1.1-1c1.5-0.3,1.7-0.7,1.8-1.7c0.1-1.8,0.1-5,0.1-7.3V16"/>
		<path class="st2" d="M60.6,19.9c0,0.3,0.1,0.5,0.6,0.5c0.5,0,2.7-0.2,5-0.4c2.2-0.2,2.4-0.2,2.4-1c0-0.2-0.1-3.4-3.2-3.4
			C61.4,15.6,60.6,19.4,60.6,19.9 M61.4,22.4c-1.5,0-1.8,0-1.8,1.6c0,4.1,2.7,7.1,6.5,7.1c1.5,0,3.6-0.5,5.2-1.4
			c0.3-0.1,1.5-0.9,1.6-0.9c0.1,0,0.1,0.2,0.1,0.3c0,0.1-0.3,3.6-0.6,3.9c-0.2,0.2-3.1,1.8-7.1,1.8c-6.8,0-10.6-4.7-10.6-10.3
			c0-5.3,3.5-11.4,10.7-11.4c4.3,0,7.8,2,7.8,7.7c0,1.6-1,1.6-2.1,1.6H61.4"/>
		<path class="st2" d="M75.4,15c0-0.7,0.1-0.8,0.8-0.9c2.1-0.3,6.3-1,6.8-1c0.6,0,0.6,0.5,0.6,0.8l0,2.1c0,1.4,0,1.8,0.4,1.8
			c0.2,0,0.6-0.4,2.5-2.5c1-1.1,2-2.2,5-2.2c1.2,0,1.5,0.3,1.5,1l-0.2,3c0,0.4,0,1.1-0.6,1.1c-0.3,0-1.2-0.3-2.9-0.3
			c-2.5,0-3.7,1-4.1,1.8c-0.7,1.2-0.7,2.3-0.7,5.4v1.9c0,2.9,0.1,3.2,0.2,3.7c0.1,1,0.5,1.1,2.7,1.6c1.4,0.3,1.5,0.3,1.5,0.9v0.6
			c0,0.2,0,0.7-0.6,0.7c-0.9,0-1.7-0.1-6.5-0.1c-2.9,0-4,0.1-4.8,0.1c-0.4,0-0.5-0.3-0.5-0.5v-0.7c0-0.6,0.1-0.6,1.3-1
			c1.2-0.3,1.5-0.6,1.6-1.5c0.1-1.5,0.1-4.7,0.1-5.8v-1.4c0-1.7-0.2-6.2-1.7-6.9c-0.5-0.2-0.7-0.2-1.8-0.3c-0.5,0-0.6-0.2-0.6-0.6
			V15"/>
		<path class="st2" d="M100.7,19.9c0,0.3,0.1,0.5,0.6,0.5c0.5,0,2.7-0.2,5-0.4c2.2-0.2,2.4-0.2,2.4-1c0-0.2-0.1-3.4-3.2-3.4
			C101.6,15.6,100.7,19.4,100.7,19.9 M101.6,22.4c-1.5,0-1.8,0-1.8,1.6c0,4.1,2.7,7.1,6.5,7.1c1.5,0,3.6-0.5,5.2-1.4
			c0.3-0.1,1.5-0.9,1.6-0.9c0.1,0,0.1,0.2,0.1,0.3c0,0.1-0.3,3.6-0.6,3.9c-0.2,0.2-3.1,1.8-7.1,1.8c-6.8,0-10.6-4.7-10.6-10.3
			c0-5.3,3.5-11.4,10.7-11.4c4.3,0,7.8,2,7.8,7.7c0,1.6-1,1.6-2.1,1.6H101.6"/>
		<path class="st2" d="M115.6,14.8c0-0.6,0.1-0.8,0.7-0.8c2.2-0.2,6-0.8,6.9-0.8c0.4,0,0.4,0.7,0.5,1.1c0.1,0.8,0.2,2.5,0.2,2.5
			c0,0.1,0.1,0.5,0.3,0.5c0.2,0,0.3-0.1,0.9-0.8c2.2-2.2,3-3.5,6.5-3.5c3,0,5.9,1.2,6.4,4c0.2,1,0.2,1.4,0.2,6.3v1.4
			c0,6.6,0,6.7,0.8,7c0.3,0.1,1.8,0.6,1.8,0.6c0.3,0.2,0.3,0.4,0.3,0.7v0.7c0,0.4-0.1,0.5-0.5,0.5c-0.8,0-1.5-0.1-4.9-0.1
			c-3.8,0-4.3,0.1-5.1,0.1c-0.4,0-0.5-0.3-0.5-0.5v-0.7c0-0.6,0.1-0.6,1.3-1c1.2-0.3,1.5-0.5,1.6-1.5c0.1-1.2,0.1-4.4,0.1-5.8v-1.4
			c0-3.7,0-6.5-3.6-6.5c-2.2,0-3.6,1.1-4.3,2c-1,1.2-1,2.8-1,4.7v1.1c0,6.6,0,6.7,0.8,7c0.3,0.1,1.7,0.6,1.8,0.6
			c0.3,0.2,0.3,0.4,0.3,0.7v0.7c0,0.4-0.1,0.5-0.5,0.5c-0.9,0-2-0.1-5-0.1c-3.7,0-4.3,0.1-5,0.1c-0.4,0-0.5-0.3-0.5-0.5v-0.7
			c0-0.6,0.1-0.6,1.3-1c1.2-0.3,1.5-0.5,1.6-1.5c0.1-1.1,0.1-4.2,0.1-5.8v-1.4c0-1.4-0.2-5.7-0.6-6.5c-0.3-0.4-0.8-0.7-1.8-0.7
			c-1.1,0-1.2-0.3-1.2-0.6V14.8"/>
		<path class="st2" d="M157.5,17.5c0,0.7-0.2,0.8-0.6,0.8h-0.7c-0.4,0-0.5-0.1-0.9-1.1c-0.7-1.7-3.2-1.7-3.6-1.7
			c-3.5,0-3.5,2.6-3.5,2.8c0,1.9,1.9,2.8,6.1,4.7c2.4,1.1,4.4,3,4.4,5.6c0,3-2.4,6.4-8.9,6.4c-2.7,0-4.6-0.6-5.6-1.1
			c-0.7-0.4-0.8-0.6-0.7-1.2l0.3-2.9c0-0.3,0-0.7,0.7-0.7h0.7c0.5,0,0.5,0.1,0.8,1.1c0.4,1.6,2.6,2.5,4.3,2.5c2.1,0,3.7-1.1,3.7-2.8
			c0-1.6-1.4-2.2-3-3c-4.4-2-6.9-3.3-6.9-7.1c0-1.9,0.9-4.5,3.9-5.8c1.7-0.8,3.8-0.8,4.6-0.8c2.1,0,4,0.5,4.7,0.9
			c0.4,0.3,0.6,0.5,0.5,1L157.5,17.5"/>
		<path class="st2" d="M178.2,18.7c-0.1,0.3-0.2,0.3-0.6,0.3h-0.8c-0.6,0-0.7-0.3-1-1.3c-0.1-0.4-1.1-1.3-3.1-1.3
			c-3.8,0-6.2,3.5-6.2,7.2c0,4.2,2.7,7.3,6.6,7.3c2.5,0,4.3-1.1,5.1-1.6c0.2-0.1,0.8-0.6,1-0.6c0.2,0,0.2,0.3,0.2,0.5
			c0,0.3-0.5,3.8-0.7,4c-0.4,0.5-3.8,1.5-6.4,1.5c-5,0-10.7-3.3-10.7-10.2c0-4.2,2.8-11.5,11.5-11.5c2.9,0,4.7,0.7,5.1,0.9
			c0.8,0.4,0.7,1.1,0.6,1.4L178.2,18.7"/>
		<path class="st2" d="M198.4,22c0-2,0-5.1-3.7-5.1c-1.5,0-2.7,0.7-3.7,1.7c-1.5,1.6-1.5,2.9-1.5,4.7v1.4c0,1,0,6,0.2,6.5
			c0.2,0.3,0.3,0.5,2.2,1.1c0.6,0.2,0.6,0.4,0.6,0.8v0.7c0,0.4-0.1,0.5-0.5,0.5c-0.6,0-1.5-0.1-4.9-0.1c-3.8,0-4.6,0.1-5,0.1
			c-0.5,0-0.5-0.3-0.5-0.5v-0.7c0-0.6,0.1-0.6,1.3-1c1.1-0.3,1.5-0.5,1.6-1.5c0.1-0.9,0.1-3.6,0.1-5.8v-9.2c0-1.2,0.1-8.4-0.2-9.2
			c-0.3-0.7-0.6-0.6-2.2-0.9c-0.7-0.1-0.8-0.4-0.8-0.7V4.1c0-0.5,0.3-0.5,0.7-0.6l6.4-1c0.4-0.1,0.5-0.1,0.6-0.1
			c0.5,0,0.6,0.4,0.6,0.8c0,0.9-0.1,4.7-0.1,5.5c0,4.3-0.2,6.9-0.2,7.5c0,0.6,0,1.1,0.1,1.1c0.1,0,1-0.9,1.4-1.4
			c1.9-1.9,2.8-2.8,5.7-2.8c0.8,0,3.3,0,5,1.5c1.7,1.4,1.7,2.4,1.7,7.8v2.4c0,6.6,0.1,6.6,0.9,7c0.3,0.1,1.8,0.6,1.8,0.6
			c0.3,0.2,0.3,0.4,0.3,0.7v0.7c0,0.4-0.1,0.5-0.5,0.5c-0.5,0-1.5-0.1-5.1-0.1c-3.4,0-4.1,0.1-4.9,0.1c-0.5,0-0.5-0.3-0.5-0.5v-0.7
			c0-0.6,0.1-0.6,1.3-1c1.1-0.3,1.5-0.5,1.6-1.5c0.1-0.9,0.1-3.6,0.1-5.8V22"/>
		<path class="st2" d="M213.5,23.7c0,4.3,2.3,7.9,5.9,7.9c3.2,0,5.4-3.4,5.4-7.2c0-2.9-1.3-8.2-5.7-8.2
			C215.5,16.3,213.5,19.9,213.5,23.7 M227.9,16.8c1.4,1.9,2,4.4,2,6.7c0,4.5-2.5,11.4-11.2,11.4c-7.5,0-10.2-5.4-10.2-10.4
			c0-5.8,3.8-11.4,10.6-11.4C223.4,13.2,226.3,14.5,227.9,16.8"/>
		<path class="st2" d="M235.6,19.3c0-2.4,0-2.5-1.1-2.5c-0.3,0-1.6,0.1-1.8,0.1l-0.7,0c-0.2,0-0.4-0.1-0.4-0.3
			c0-0.1,0.1-0.4,0.1-0.5l0.5-1.4c0.4-0.9,0.4-1,0.9-1c0.2,0,1.2,0.1,1.4,0.1c1.1,0,1.1-0.5,1.1-1c0-0.2-0.2-3.8-0.2-4.5
			c0-1,0.4-1.3,1.2-1.6l2.7-0.9c0.8-0.3,0.8-0.3,1-0.3c0.4,0,0.4,0.5,0.4,0.7c0,0.2-0.3,2.7-0.4,3.2c-0.1,0.9-0.2,2.6-0.2,3.4
			c0,0.9,0.6,0.9,1.5,0.9h3.5c0.3,0,1.3,0,2-0.1l0.5,0c0.3,0,0.4,0.2,0.4,0.3c0,0.3-0.2,1.1-0.5,2.2c-0.2,0.6-0.5,0.8-1.2,0.8
			c-0.6,0-3.7-0.2-4.4-0.2c-0.8,0-1.2,0-1.3,0.3c-0.1,0.3-0.1,1.1-0.1,1.5V25c0,4.7,0,6.5,3.1,6.5c0.7,0,1.5-0.1,3-0.5
			c0.2,0,0.9-0.2,1-0.2c0.1,0,0.3,0,0.3,0.3c0,0-0.3,2.5-0.5,2.8c-0.2,0.3-2.6,1-5.3,1c-5.8,0-6.7-2.1-6.7-5.1l0.1-4.8V19.3"/>
	</g>
</g>
<g id="Layer_3_copy">
	<g>
		<path class="st2" d="M31.4,22.1v3.1c0,1.9,0.1,2.4,2.3,2.4c1.3,0,2.6-0.1,3.8-0.8c1.4-0.9,2.4-2.4,2.4-4.6c0-2.8-1.8-4.2-2.8-4.7
			c-0.9-0.4-1.7-0.5-4.6-0.5c-1.1,0-1.1,0.2-1.1,0.7L31.4,22.1z M31.4,14.2c0,0.6,0,0.6,1.1,0.6c0.6,0,2.1-0.1,2.7-0.3
			c1.7-0.5,3.1-2.2,3.1-4.3c0-1.1-0.4-4.1-4.2-4.1c-2.3,0-2.4,0-2.6,0.2c-0.1,0.2-0.1,2.7-0.1,3.2V14.2z M26.7,13.7
			c0-1.2,0-6.4-0.2-7c-0.1-0.5-0.6-0.8-1.5-0.9c-0.8-0.2-1-0.3-1-0.9V4.1c0-0.5,0.1-0.6,0.5-0.6c0.4,0,1.1,0,1.9,0.1
			c0.8,0,1.7,0.1,2.4,0.1c0.9,0,2.2-0.1,3.4-0.1c1.3,0,2.6-0.1,3.7-0.1c1.5,0,3.8,0,5.5,1.9c1.1,1.1,1.6,2.5,1.6,4.2
			c0,4.5-3.9,5.4-4.9,5.7c-0.9,0.2-1,0.2-1,0.4c0,0.2,0.1,0.2,1,0.3c2.3,0.2,3.9,1,4.9,2.2c1.4,1.6,1.6,3.3,1.6,4.4
			c0,3.7-3.2,7.7-8.5,7.7c-1.4,0-2.5-0.1-3.6-0.1c-1.1-0.1-2.2-0.2-3.8-0.2c-0.6,0-1.5,0-2.4,0.1c-0.9,0-1.7,0.1-2,0.1
			c-0.4,0-0.5-0.2-0.5-0.6v-0.8c0-0.6,0.2-0.7,1-0.9c1.4-0.3,1.5-0.6,1.6-1.5c0.1-1.6,0.1-4.4,0.1-6.5V13.7"/>
		<path class="st2" d="M52.7,17.1c0,0.2,0.1,0.4,0.6,0.4c0.4,0,2.4-0.2,4.4-0.3c1.9-0.1,2.1-0.2,2.1-0.9c0-0.2-0.1-3-2.8-3
			C53.4,13.3,52.7,16.7,52.7,17.1 M53.4,19.3c-1.3,0-1.6,0-1.6,1.4c0,3.6,2.3,6.2,5.7,6.2c1.3,0,3.2-0.4,4.6-1.2
			c0.2-0.1,1.3-0.8,1.4-0.8c0.1,0,0.1,0.2,0.1,0.3c0,0.1-0.2,3.1-0.5,3.5c-0.2,0.2-2.8,1.6-6.2,1.6c-6,0-9.3-4.2-9.3-9.1
			c0-4.7,3.1-10.1,9.5-10.1c3.8,0,6.9,1.8,6.9,6.8c0,1.4-0.9,1.4-1.9,1.4H53.4"/>
		<path class="st2" d="M65.8,12.8c0-0.6,0.1-0.7,0.7-0.8c1.8-0.2,5.6-0.9,6-0.9c0.5,0,0.5,0.5,0.5,0.7l0,1.8c0,1.2,0,1.6,0.3,1.6
			c0.2,0,0.5-0.4,2.2-2.2c0.9-1,1.7-1.9,4.4-1.9c1.1,0,1.4,0.3,1.3,0.9l-0.1,2.6c0,0.3,0,1-0.5,1c-0.2,0-1.1-0.3-2.5-0.3
			c-2.2,0-3.2,0.9-3.6,1.6c-0.6,1.1-0.6,2-0.6,4.7v1.7c0,2.5,0.1,2.8,0.1,3.3c0.1,0.9,0.4,0.9,2.4,1.4c1.2,0.3,1.4,0.3,1.4,0.8v0.5
			c0,0.2,0,0.6-0.5,0.6c-0.8,0-1.5-0.1-5.7-0.1c-2.6,0-3.5,0.1-4.2,0.1c-0.4,0-0.4-0.3-0.4-0.5v-0.6c0-0.5,0.1-0.6,1.2-0.9
			c1.1-0.3,1.4-0.5,1.4-1.3c0.1-1.3,0.1-4.2,0.1-5.1v-1.2c0-1.5-0.1-5.5-1.5-6.1c-0.4-0.2-0.6-0.2-1.6-0.3c-0.5,0-0.6-0.2-0.6-0.5
			V12.8"/>
		<path class="st2" d="M88.1,17.1c0,0.2,0.1,0.4,0.6,0.4c0.4,0,2.4-0.2,4.4-0.3c1.9-0.1,2.2-0.2,2.2-0.9c0-0.2-0.1-3-2.8-3
			C88.8,13.3,88.1,16.7,88.1,17.1 M88.8,19.3c-1.3,0-1.6,0-1.6,1.4c0,3.6,2.3,6.2,5.7,6.2c1.3,0,3.2-0.4,4.6-1.2
			c0.2-0.1,1.3-0.8,1.4-0.8c0.1,0,0.1,0.2,0.1,0.3c0,0.1-0.2,3.1-0.5,3.5c-0.2,0.2-2.8,1.6-6.2,1.6c-6,0-9.3-4.2-9.3-9.1
			c0-4.7,3.1-10.1,9.5-10.1c3.8,0,6.9,1.8,6.9,6.8c0,1.4-0.9,1.4-1.9,1.4H88.8"/>
		<path class="st2" d="M101.2,12.6c0-0.6,0.1-0.7,0.6-0.7c2-0.2,5.3-0.7,6.1-0.7c0.3,0,0.4,0.6,0.4,1c0.1,0.7,0.1,2.2,0.1,2.2
			c0,0.1,0.1,0.5,0.3,0.5c0.2,0,0.2-0.1,0.8-0.7c1.9-1.9,2.6-3.1,5.7-3.1c2.6,0,5.2,1.1,5.6,3.5c0.1,0.9,0.1,1.2,0.1,5.6v1.2
			c0,5.9,0,5.9,0.7,6.2c0.3,0.1,1.5,0.5,1.6,0.6c0.3,0.1,0.3,0.3,0.3,0.6v0.6c0,0.3-0.1,0.5-0.4,0.5c-0.7,0-1.3-0.1-4.3-0.1
			c-3.4,0-3.8,0.1-4.5,0.1c-0.4,0-0.4-0.3-0.4-0.5v-0.6c0-0.5,0.1-0.6,1.2-0.9c1.1-0.3,1.4-0.5,1.4-1.3c0.1-1.1,0.1-3.9,0.1-5.1
			v-1.2c0-3.3,0-5.7-3.2-5.7c-2,0-3.2,1-3.8,1.8c-0.9,1.1-0.9,2.5-0.9,4.2v1c0,5.9,0,5.9,0.7,6.2c0.3,0.1,1.5,0.5,1.6,0.6
			c0.3,0.1,0.3,0.3,0.3,0.6v0.6c0,0.3-0.1,0.5-0.4,0.5c-0.8,0-1.7-0.1-4.4-0.1c-3.2,0-3.8,0.1-4.4,0.1c-0.4,0-0.4-0.3-0.4-0.5v-0.6
			c0-0.5,0.1-0.6,1.2-0.9c1-0.3,1.4-0.5,1.4-1.3c0.1-1,0.1-3.7,0.1-5.1v-1.3c0-1.2-0.2-5-0.6-5.7c-0.2-0.4-0.7-0.6-1.6-0.6
			c-1,0-1.1-0.2-1.1-0.5V12.6"/>
		<path class="st2" d="M138.1,15c0,0.6-0.2,0.7-0.5,0.7H137c-0.4,0-0.4-0.1-0.8-1c-0.6-1.5-2.9-1.5-3.2-1.5c-3.1,0-3.1,2.3-3.1,2.4
			c0,1.7,1.7,2.5,5.4,4.1c2.1,0.9,3.9,2.7,3.9,5c0,2.6-2.1,5.7-7.9,5.7c-2.3,0-4.1-0.6-4.9-1c-0.6-0.3-0.7-0.5-0.6-1.1l0.3-2.5
			c0-0.2,0-0.6,0.6-0.6h0.6c0.4,0,0.4,0.1,0.7,1c0.4,1.4,2.3,2.2,3.8,2.2c1.8,0,3.3-1,3.3-2.5c0-1.4-1.2-2-2.7-2.7
			c-3.8-1.7-6.1-2.9-6.1-6.3c0-1.7,0.8-4,3.4-5.1c1.5-0.7,3.4-0.7,4.1-0.7c1.8,0,3.5,0.5,4.1,0.8c0.4,0.2,0.5,0.4,0.5,0.9L138.1,15"
			/>
		<path class="st2" d="M156.4,16.1c-0.1,0.2-0.2,0.3-0.5,0.3h-0.7c-0.5,0-0.6-0.3-0.9-1.1c-0.1-0.4-1-1.1-2.7-1.1
			c-3.4,0-5.4,3.1-5.4,6.4c0,3.7,2.4,6.5,5.8,6.5c2.2,0,3.8-1,4.5-1.4c0.2-0.1,0.7-0.5,0.9-0.5c0.2,0,0.2,0.2,0.2,0.4
			c0,0.2-0.4,3.3-0.6,3.5c-0.3,0.5-3.4,1.3-5.7,1.3c-4.4,0-9.4-2.9-9.4-9c0-3.7,2.5-10.2,10.1-10.2c2.5,0,4.2,0.6,4.5,0.8
			c0.7,0.3,0.6,1,0.6,1.2L156.4,16.1"/>
		<path class="st2" d="M174.2,19c0-1.7,0-4.5-3.2-4.5c-1.3,0-2.4,0.6-3.3,1.5c-1.3,1.4-1.3,2.6-1.3,4.2v1.3c0,0.9,0,5.3,0.2,5.8
			c0.2,0.3,0.3,0.4,1.9,0.9c0.5,0.2,0.5,0.3,0.5,0.7v0.6c0,0.3-0.1,0.5-0.5,0.5c-0.5,0-1.3-0.1-4.3-0.1c-3.3,0-4,0.1-4.4,0.1
			c-0.4,0-0.4-0.3-0.4-0.5v-0.6c0-0.5,0.1-0.6,1.2-0.9c1-0.3,1.3-0.5,1.4-1.3c0.1-0.8,0.1-3.2,0.1-5.1v-8.1c0-1.1,0-7.4-0.2-8.1
			c-0.2-0.6-0.6-0.6-1.9-0.8c-0.6-0.1-0.7-0.4-0.7-0.6V3.1c0-0.4,0.3-0.5,0.6-0.5l5.7-0.9c0.4-0.1,0.5-0.1,0.5-0.1
			c0.4,0,0.5,0.4,0.5,0.7c0,0.8-0.1,4.2-0.1,4.9c0,3.8-0.1,6.1-0.1,6.6c0,0.5,0,0.9,0.1,0.9c0,0,0.9-0.8,1.3-1.2
			c1.7-1.7,2.5-2.5,5-2.5c0.7,0,2.9,0,4.4,1.3c1.5,1.3,1.5,2.1,1.5,6.9v2.1c0,5.9,0.1,5.9,0.8,6.2c0.2,0.1,1.5,0.5,1.6,0.6
			c0.3,0.1,0.3,0.3,0.3,0.6v0.6c0,0.3-0.1,0.5-0.5,0.5c-0.4,0-1.4-0.1-4.5-0.1c-3,0-3.7,0.1-4.3,0.1c-0.4,0-0.4-0.3-0.4-0.5v-0.6
			c0-0.5,0.1-0.6,1.2-0.9c1-0.3,1.4-0.5,1.4-1.3c0.1-0.8,0.1-3.2,0.1-5.1V19"/>
		<path class="st2" d="M187.6,20.5c0,3.8,2,7,5.2,7c2.8,0,4.8-3,4.8-6.4c0-2.6-1.2-7.2-5.1-7.2C189.3,13.9,187.6,17.1,187.6,20.5
			 M200.2,14.4c1.2,1.7,1.8,3.8,1.8,5.9c0,3.9-2.2,10-9.9,10c-6.6,0-9-4.7-9-9.2c0-5.2,3.4-10,9.3-10
			C196.3,11.2,198.8,12.4,200.2,14.4"/>
		<path class="st2" d="M207,16.5c0-2.1,0-2.2-0.9-2.2c-0.3,0-1.4,0.1-1.6,0.1l-0.6,0c-0.2,0-0.3-0.1-0.3-0.3c0-0.1,0.1-0.3,0.1-0.4
			l0.4-1.2c0.3-0.8,0.3-0.9,0.8-0.9c0.2,0,1.1,0.1,1.3,0.1c0.9,0,1-0.4,1-0.9c0-0.2-0.2-3.3-0.2-4c0-0.9,0.3-1.1,1-1.4l2.4-0.8
			c0.7-0.2,0.7-0.3,0.9-0.3c0.3,0,0.4,0.5,0.4,0.6c0,0.1-0.3,2.4-0.3,2.8c-0.1,0.8-0.2,2.3-0.2,3c0,0.8,0.5,0.8,1.3,0.8h3.1
			c0.3,0,1.2,0,1.7-0.1l0.4,0c0.3,0,0.3,0.2,0.3,0.3c0,0.3-0.2,0.9-0.5,1.9c-0.2,0.6-0.4,0.7-1.1,0.7c-0.5,0-3.3-0.2-3.9-0.2
			c-0.7,0-1.1,0-1.2,0.3c-0.1,0.3-0.1,0.9-0.1,1.3v5.8c0,4.2,0,5.7,2.8,5.7c0.6,0,1.3,0,2.7-0.4c0.2,0,0.8-0.2,0.9-0.2
			c0.1,0,0.3,0,0.3,0.3c0,0-0.2,2.2-0.4,2.5c-0.2,0.2-2.3,0.9-4.7,0.9c-5.1,0-5.9-1.9-5.9-4.5l0.1-4.2V16.5"/>
	</g>
</g>
<g id="Layer_4" class="st0">
	<line class="st3" x1="433.3" y1="33" x2="-162" y2="33"/>
	<g class="st1">
		<defs>
			<rect id="SVGID_1_" x="24.8" y="1" width="192.2" height="28.7"/>
		</defs>
		<clipPath id="SVGID_2_">
			<use xlink:href="#SVGID_1_"  style="overflow:visible;"/>
		</clipPath>
		<path class="st4" d="M32.1,21.5v3.1c0,1.9,0.1,2.4,2.3,2.4c1.3,0,2.6-0.1,3.7-0.8c1.4-0.9,2.4-2.4,2.4-4.6c0-2.8-1.8-4.2-2.8-4.7
			c-0.9-0.4-1.7-0.5-4.5-0.5c-1,0-1.1,0.2-1.1,0.7L32.1,21.5z M32.1,13.5c0,0.6,0,0.6,1.1,0.6c0.6,0,2.1-0.1,2.7-0.3
			c1.7-0.5,3.1-2.2,3.1-4.3c0-1.1-0.4-4.1-4.2-4.1c-2.3,0-2.4,0-2.5,0.2c-0.1,0.2-0.1,2.7-0.1,3.2V13.5z M27.5,13c0-1.2,0-6.4-0.2-7
			c-0.1-0.5-0.6-0.8-1.5-0.9c-0.8-0.2-1-0.3-1-0.9V3.5c0-0.5,0.1-0.6,0.5-0.6c0.4,0,1.1,0,1.9,0.1C28.1,3,29,3,29.7,3
			c0.9,0,2.1-0.1,3.4-0.1c1.3,0,2.6-0.1,3.7-0.1c1.5,0,3.7,0,5.5,1.9c1,1.1,1.6,2.5,1.6,4.2c0,4.5-3.8,5.4-4.8,5.7
			c-0.9,0.2-1,0.2-1,0.4c0,0.2,0.1,0.2,1,0.3c2.3,0.2,3.9,1,4.9,2.2c1.4,1.6,1.6,3.3,1.6,4.4c0,3.7-3.1,7.7-8.4,7.7
			c-1.4,0-2.5-0.1-3.6-0.1c-1.1-0.1-2.2-0.2-3.8-0.2c-0.6,0-1.5,0-2.4,0.1c-0.9,0-1.6,0.1-2,0.1c-0.4,0-0.5-0.2-0.5-0.6v-0.8
			c0-0.6,0.2-0.7,1-0.9c1.3-0.3,1.5-0.6,1.6-1.5c0.1-1.6,0.1-4.4,0.1-6.5V13"/>
		<path class="st4" d="M53.2,16.4c0,0.2,0.1,0.4,0.6,0.4c0.4,0,2.4-0.2,4.3-0.3c1.9-0.1,2.1-0.2,2.1-0.9c0-0.2-0.1-3-2.8-3
			C54,12.7,53.2,16,53.2,16.4 M54,18.7c-1.3,0-1.6,0-1.6,1.4c0,3.6,2.3,6.2,5.7,6.2c1.3,0,3.1-0.4,4.5-1.2c0.2-0.1,1.3-0.8,1.4-0.8
			c0.1,0,0.1,0.2,0.1,0.3c0,0.1-0.2,3.1-0.5,3.5c-0.2,0.2-2.7,1.6-6.2,1.6c-5.9,0-9.2-4.2-9.2-9.1c0-4.7,3.1-10.1,9.4-10.1
			c3.7,0,6.8,1.8,6.8,6.8c0,1.4-0.9,1.4-1.8,1.4H54"/>
		<path class="st4" d="M66.2,12.1c0-0.6,0.1-0.7,0.7-0.8c1.8-0.2,5.5-0.9,5.9-0.9c0.5,0,0.5,0.5,0.5,0.7l0,1.8c0,1.2,0,1.6,0.3,1.6
			c0.2,0,0.5-0.4,2.2-2.2c0.9-1,1.7-1.9,4.3-1.9c1.1,0,1.3,0.3,1.3,0.9L81.3,14c0,0.3,0,1-0.5,1c-0.2,0-1-0.3-2.5-0.3
			c-2.2,0-3.2,0.9-3.6,1.6c-0.6,1.1-0.6,2-0.6,4.7v1.7c0,2.5,0.1,2.8,0.1,3.3c0.1,0.9,0.4,0.9,2.4,1.4c1.2,0.3,1.3,0.3,1.3,0.8v0.5
			c0,0.2,0,0.6-0.5,0.6c-0.7,0-1.5-0.1-5.7-0.1c-2.5,0-3.5,0.1-4.2,0.1c-0.4,0-0.4-0.3-0.4-0.5v-0.6c0-0.5,0.1-0.6,1.2-0.9
			c1.1-0.3,1.4-0.5,1.4-1.3c0.1-1.3,0.1-4.2,0.1-5.1v-1.2c0-1.5-0.1-5.5-1.5-6.1c-0.4-0.2-0.6-0.2-1.6-0.3c-0.5,0-0.6-0.2-0.6-0.5
			V12.1"/>
		<path class="st4" d="M88.3,16.4c0,0.2,0.1,0.4,0.6,0.4c0.4,0,2.4-0.2,4.3-0.3c1.9-0.1,2.1-0.2,2.1-0.9c0-0.2-0.1-3-2.8-3
			C89,12.7,88.3,16,88.3,16.4 M89,18.7c-1.3,0-1.6,0-1.6,1.4c0,3.6,2.3,6.2,5.7,6.2c1.3,0,3.1-0.4,4.5-1.2c0.2-0.1,1.3-0.8,1.4-0.8
			c0.1,0,0.1,0.2,0.1,0.3c0,0.1-0.2,3.1-0.5,3.5c-0.2,0.2-2.7,1.6-6.2,1.6c-5.9,0-9.2-4.2-9.2-9.1c0-4.7,3.1-10.1,9.4-10.1
			c3.7,0,6.8,1.8,6.8,6.8c0,1.4-0.9,1.4-1.8,1.4H89"/>
		<path class="st4" d="M101.3,12c0-0.6,0.1-0.7,0.6-0.7c1.9-0.2,5.3-0.7,6-0.7c0.3,0,0.4,0.6,0.4,1c0.1,0.7,0.1,2.2,0.1,2.2
			s0.1,0.5,0.3,0.5c0.2,0,0.2-0.1,0.8-0.7c1.9-1.9,2.6-3.1,5.6-3.1c2.6,0,5.2,1.1,5.6,3.5c0.1,0.9,0.1,1.2,0.1,5.6v1.2
			c0,5.9,0,5.9,0.7,6.2c0.3,0.1,1.5,0.5,1.6,0.6c0.3,0.1,0.3,0.3,0.3,0.6v0.6c0,0.3-0.1,0.5-0.4,0.5c-0.7,0-1.3-0.1-4.3-0.1
			c-3.3,0-3.8,0.1-4.4,0.1c-0.4,0-0.4-0.3-0.4-0.5v-0.6c0-0.5,0.1-0.6,1.2-0.9c1.1-0.3,1.4-0.5,1.4-1.3c0.1-1.1,0.1-3.9,0.1-5.1
			v-1.2c0-3.3,0-5.7-3.2-5.7c-1.9,0-3.1,1-3.8,1.8c-0.9,1.1-0.9,2.5-0.9,4.2v1c0,5.9,0,5.9,0.7,6.2c0.3,0.1,1.5,0.5,1.6,0.6
			c0.3,0.1,0.3,0.3,0.3,0.6v0.6c0,0.3-0.1,0.5-0.4,0.5c-0.8,0-1.7-0.1-4.3-0.1c-3.2,0-3.7,0.1-4.4,0.1c-0.4,0-0.4-0.3-0.4-0.5v-0.6
			c0-0.5,0.1-0.6,1.2-0.9c1-0.3,1.3-0.5,1.4-1.3c0.1-1,0.1-3.7,0.1-5.1v-1.3c0-1.2-0.2-5-0.6-5.7c-0.2-0.4-0.7-0.6-1.6-0.6
			c-1,0-1.1-0.2-1.1-0.5V12"/>
		<path class="st4" d="M137.9,14.3c0,0.6-0.1,0.7-0.5,0.7h-0.6c-0.4,0-0.4-0.1-0.7-1c-0.6-1.5-2.8-1.5-3.2-1.5c-3,0-3,2.3-3,2.4
			c0,1.7,1.7,2.5,5.3,4.1c2.1,0.9,3.9,2.7,3.9,5c0,2.6-2.1,5.7-7.8,5.7c-2.3,0-4-0.6-4.9-1c-0.6-0.3-0.7-0.5-0.6-1.1l0.3-2.5
			c0-0.2,0-0.6,0.6-0.6h0.6c0.4,0,0.4,0.1,0.7,1c0.4,1.4,2.2,2.2,3.7,2.2c1.8,0,3.2-1,3.2-2.5c0-1.4-1.2-2-2.7-2.7
			c-3.8-1.7-6-2.9-6-6.3c0-1.7,0.8-4,3.4-5.1c1.5-0.7,3.4-0.7,4-0.7c1.8,0,3.5,0.5,4.1,0.8c0.4,0.2,0.5,0.4,0.5,0.9L137.9,14.3"/>
		<path class="st4" d="M156,15.4c-0.1,0.2-0.2,0.3-0.5,0.3h-0.7c-0.5,0-0.6-0.3-0.9-1.1c-0.1-0.4-1-1.1-2.7-1.1
			c-3.4,0-5.4,3.1-5.4,6.4c0,3.7,2.4,6.5,5.8,6.5c2.2,0,3.8-1,4.4-1.4c0.2-0.1,0.7-0.5,0.9-0.5c0.2,0,0.2,0.2,0.2,0.4
			c0,0.2-0.4,3.3-0.6,3.5c-0.3,0.5-3.3,1.3-5.6,1.3c-4.4,0-9.3-2.9-9.3-9c0-3.7,2.4-10.2,10-10.2c2.5,0,4.1,0.6,4.5,0.8
			c0.7,0.3,0.6,1,0.6,1.2L156,15.4"/>
		<path class="st4" d="M173.6,18.3c0-1.7,0-4.5-3.2-4.5c-1.3,0-2.4,0.6-3.3,1.5c-1.3,1.4-1.3,2.6-1.3,4.2v1.3c0,0.9,0,5.3,0.2,5.8
			c0.1,0.3,0.3,0.4,1.9,0.9c0.5,0.2,0.5,0.3,0.5,0.7v0.6c0,0.3-0.1,0.5-0.4,0.5c-0.5,0-1.3-0.1-4.3-0.1c-3.3,0-4,0.1-4.4,0.1
			c-0.4,0-0.4-0.3-0.4-0.5v-0.6c0-0.5,0.1-0.6,1.2-0.9c1-0.3,1.3-0.5,1.4-1.3c0.1-0.8,0.1-3.2,0.1-5.1v-8.1c0-1.1,0-7.4-0.2-8.1
			c-0.2-0.6-0.6-0.6-1.9-0.8c-0.6-0.1-0.7-0.4-0.7-0.6V2.5c0-0.4,0.3-0.5,0.6-0.5l5.6-0.9c0.4-0.1,0.5-0.1,0.5-0.1
			c0.4,0,0.5,0.4,0.5,0.7c0,0.8-0.1,4.2-0.1,4.9c0,3.8-0.1,6.1-0.1,6.7c0,0.5,0,0.9,0.1,0.9c0,0,0.9-0.8,1.2-1.2
			c1.7-1.7,2.5-2.5,5-2.5c0.7,0,2.9,0,4.4,1.3c1.5,1.3,1.5,2.1,1.5,6.9v2.1c0,5.9,0.1,5.9,0.7,6.2c0.2,0.1,1.5,0.5,1.6,0.6
			c0.3,0.1,0.3,0.3,0.3,0.6v0.6c0,0.3-0.1,0.5-0.4,0.5c-0.4,0-1.3-0.1-4.4-0.1c-2.9,0-3.6,0.1-4.3,0.1c-0.4,0-0.4-0.3-0.4-0.5v-0.6
			c0-0.5,0.1-0.6,1.2-0.9c1-0.3,1.4-0.5,1.4-1.3c0.1-0.8,0.1-3.2,0.1-5.1V18.3"/>
		<path class="st4" d="M186.9,19.8c0,3.8,2,7,5.2,7c2.8,0,4.7-3,4.7-6.4c0-2.6-1.2-7.2-5-7.2C188.6,13.2,186.9,16.4,186.9,19.8
			 M199.4,13.7c1.2,1.7,1.8,3.8,1.8,5.9c0,3.9-2.2,10-9.8,10c-6.5,0-8.9-4.7-8.9-9.2c0-5.2,3.3-10,9.2-10
			C195.5,10.5,198,11.7,199.4,13.7"/>
		<path class="st4" d="M206.1,15.9c0-2.1,0-2.2-0.9-2.2c-0.3,0-1.4,0.1-1.6,0.1l-0.6,0c-0.2,0-0.3-0.1-0.3-0.3
			c0-0.1,0.1-0.3,0.1-0.4l0.4-1.2c0.3-0.8,0.3-0.9,0.8-0.9c0.2,0,1.1,0.1,1.3,0.1c0.9,0,1-0.4,1-0.9c0-0.2-0.2-3.3-0.2-4
			c0-0.9,0.3-1.1,1-1.4l2.3-0.8c0.7-0.2,0.7-0.3,0.9-0.3c0.3,0,0.4,0.5,0.4,0.6c0,0.1-0.3,2.4-0.3,2.8c-0.1,0.8-0.2,2.3-0.2,3
			c0,0.8,0.5,0.8,1.3,0.8h3c0.3,0,1.2,0,1.7-0.1l0.4,0c0.3,0,0.3,0.2,0.3,0.3c0,0.3-0.2,0.9-0.5,1.9c-0.2,0.6-0.4,0.7-1.1,0.7
			c-0.5,0-3.2-0.2-3.8-0.2c-0.7,0-1.1,0-1.2,0.3c-0.1,0.3-0.1,0.9-0.1,1.3v5.8c0,4.2,0,5.7,2.7,5.7c0.6,0,1.3,0,2.7-0.4
			c0.2,0,0.8-0.2,0.9-0.2c0.1,0,0.3,0,0.3,0.3c0,0-0.2,2.2-0.4,2.5c-0.2,0.2-2.3,0.9-4.6,0.9c-5.1,0-5.8-1.9-5.8-4.5l0.1-4.2V15.9"
			/>
	</g>
	<line class="st3" x1="433.3" y1="33" x2="-162" y2="33"/>
	<line class="st3" x1="433.3" y1="33" x2="-162" y2="33"/>
</g>
<g id="Layer_2" class="st0">
	<rect class="st5" width="250" height="60"/>
</g>
</svg>
